<?xml version="1.0" encoding="utf-8"?>
<!-- Generator: Adobe Illustrator 16.0.0, SVG Export Plug-In . SVG Version: 6.00 Build 0)  -->
<!DOCTYPE svg PUBLIC "-//W3C//DTD SVG 1.1//EN" "http://www.w3.org/Graphics/SVG/1.1/DTD/svg11.dtd">
<svg version="1.1" id="Layer_1" xmlns="http://www.w3.org/2000/svg" xmlns:xlink="http://www.w3.org/1999/xlink" x="0px" y="0px"
	 width="33px" height="33px" viewBox="0 0 33 33" enable-background="new 0 0 33 33" xml:space="preserve">
<g>
	<path fill="#010101" d="M16.5,1.321C8.117,1.321,1.322,8.117,1.322,16.5c0,8.383,6.795,15.179,15.179,15.179
		S31.679,24.883,31.679,16.5C31.679,8.117,24.884,1.321,16.5,1.321z M15.793,20.65l-3.719-1.479l-0.001,4.913H8.507v-6.331v-2.389
		v-1.29l7.287,2.895L15.793,20.65z M24.494,24.109l-7.287-2.896v-3.681l7.287,2.895V24.109z M24.494,12.569l-7.991,3.108
		l-7.997-3.108V8.891l7.997,3.104l7.991-3.104V12.569z"/>
</g>
</svg>
