<?xml version="1.0" encoding="utf-8"?>
<!-- Generator: Adobe Illustrator 16.0.0, SVG Export Plug-In . SVG Version: 6.00 Build 0)  -->
<!DOCTYPE svg PUBLIC "-//W3C//DTD SVG 1.1//EN" "http://www.w3.org/Graphics/SVG/1.1/DTD/svg11.dtd">
<svg version="1.1" id="Layer_1" xmlns="http://www.w3.org/2000/svg" xmlns:xlink="http://www.w3.org/1999/xlink" x="0px" y="0px"
	 width="182px" height="46px" viewBox="0 0 182 46" enable-background="new 0 0 182 46" xml:space="preserve">
<g>
	<path fill="#FFFFFF" d="M25.389,1.525c-11.993,0-21.715,9.723-21.715,21.715c0,11.994,9.723,21.715,21.715,21.715
		c11.992,0,21.715-9.722,21.715-21.715C47.104,11.248,37.381,1.525,25.389,1.525z M24.377,29.177l-5.32-2.116l-0.002,7.028h-5.101
		v-9.058v-3.417v-1.845l10.424,4.143L24.377,29.177z M36.824,34.126L26.4,29.98v-5.265l10.424,4.141V34.126z M36.824,17.616
		l-11.431,4.446l-11.44-4.446v-5.262l11.44,4.439l11.431-4.439V17.616z"/>
	<g>
		<path fill="#FFFFFF" d="M62.587,16.39l3.971,8.329l3.95-8.329h3.425v13.622h-2.764v-9.185l-3.62,7.804h-2.004l-3.619-7.804v9.185
			h-2.783V16.39H62.587z"/>
		<path fill="#FFFFFF" d="M85.94,27.365h-6.305l-1.071,2.646h-3.171l5.916-13.622h3.172l5.819,13.622h-3.289L85.94,27.365z
			 M84.947,24.894l-2.14-5.292l-2.161,5.292H84.947z"/>
		<path fill="#FFFFFF" d="M94.289,16.39l2.842,4.165l2.86-4.165h3.64l-4.535,6.52l4.924,7.103h-3.678l-3.211-4.533l-3.152,4.533
			h-3.601l4.885-6.966l-4.555-6.656H94.289z"/>
		<path fill="#FFFFFF" d="M112.311,25.614v4.397h-3.075v-4.32l-5.041-9.302h3.095l3.483,6.111l3.406-6.111h3.094L112.311,25.614z"/>
		<path fill="#FFFFFF" d="M124.668,18.959c-2.335,0-4.145,1.81-4.145,4.184c0,2.374,1.81,4.203,4.145,4.203
			c1.226,0,2.568-0.623,3.541-1.596l1.81,1.966c-1.438,1.479-3.521,2.433-5.506,2.433c-4.067,0-7.142-3.017-7.142-6.967
			c0-3.931,3.132-6.889,7.258-6.889c1.966,0,4.028,0.876,5.371,2.258l-1.791,2.179C127.275,19.659,125.933,18.959,124.668,18.959z"
			/>
		<path fill="#FFFFFF" d="M145.238,23.201c0,3.931-3.153,6.948-7.317,6.948s-7.316-2.997-7.316-6.948
			c0-3.969,3.152-6.908,7.316-6.908S145.238,19.25,145.238,23.201z M133.757,23.201c0,2.394,1.926,4.263,4.203,4.263
			c2.276,0,4.125-1.869,4.125-4.263c0-2.393-1.849-4.223-4.125-4.223C135.663,18.978,133.757,20.808,133.757,23.201z"/>
		<path fill="#FFFFFF" d="M160.203,23.201c0,4.009-2.978,6.811-7.278,6.811h-5.662V16.39h5.779
			C157.265,16.39,160.203,19.173,160.203,23.201z M157.07,23.22c0-2.51-1.751-4.242-4.087-4.242h-2.646v8.447h2.783
			C155.396,27.425,157.07,25.711,157.07,23.22z"/>
		<path fill="#FFFFFF" d="M172.601,16.39v2.55h-7.298v2.958h6.578v2.549h-6.578v3.018h7.512v2.548h-10.587V16.39H172.601z"/>
		<g>
			<path fill="#FFFFFF" d="M175.995,28.184h-0.288v0.503h0.288c0.18,0,0.285-0.092,0.285-0.253
				C176.28,28.271,176.175,28.184,175.995,28.184z"/>
			<path fill="#FFFFFF" d="M176.006,27.094c-0.856,0-1.498,0.622-1.498,1.537c0,0.895,0.642,1.557,1.498,1.557
				c0.876,0,1.499-0.662,1.499-1.557C177.505,27.716,176.882,27.094,176.006,27.094z M176.258,29.351l-0.228-0.411h-0.035h-0.288
				v0.411h-0.315V27.93h0.604c0.377,0,0.587,0.18,0.587,0.489c0,0.225-0.097,0.381-0.272,0.46l0.312,0.472H176.258z"/>
		</g>
	</g>
</g>
</svg>
